<svg id="splitsvg" version="1.1" xmlns="http://www.w3.org/2000/svg" xmlns:xlink="http://www.w3.org/1999/xlink" width="1380" height="860"><g id="svgg"><path id="path0" d="M0.000 200.000 L 0.000 400.000 200.000 400.000 L 400.000 400.000 400.000 200.000 L 400.000 0.000 200.000 0.000 L 0.000 0.000 0.000 200.000 M256.680 119.700 C 258.377 121.563,258.400 121.803,258.400 137.699 L 258.400 153.050 259.626 154.225 L 260.852 155.400 278.326 155.500 C 297.970 155.611,297.340 155.555,298.411 157.311 C 299.164 158.546,299.197 159.422,299.199 178.340 L 299.200 198.080 297.840 199.440 L 296.480 200.800 279.069 200.800 C 263.900 200.800,261.578 200.720,261.039 200.182 C 260.112 199.254,259.453 196.527,259.425 193.500 C 259.396 190.372,258.846 189.999,257.535 192.220 C 256.407 194.133,255.731 193.889,253.745 190.854 C 250.778 186.318,247.200 183.372,247.200 185.463 C 247.200 185.828,247.904 187.043,248.764 188.163 C 251.841 192.169,250.950 192.973,246.980 189.772 C 243.686 187.116,242.543 186.497,241.976 187.064 C 241.371 187.669,241.863 188.416,244.173 190.400 C 246.742 192.606,248.278 194.682,247.739 195.221 C 247.344 195.616,246.344 194.955,242.650 191.855 C 240.981 190.455,239.600 190.122,239.600 191.120 C 239.600 191.310,241.141 192.945,243.025 194.755 C 247.997 199.531,247.387 201.884,242.118 198.247 C 237.477 195.042,237.848 196.823,242.699 201.035 C 244.404 202.517,246.758 205.094,247.930 206.764 C 249.101 208.434,251.221 210.880,252.639 212.200 C 254.865 214.271,255.423 215.093,256.709 218.200 L 258.200 221.800 258.200 228.218 C 258.200 238.378,260.313 237.595,232.887 237.598 C 205.357 237.601,208.000 238.947,208.000 224.923 L 208.000 215.224 210.419 208.312 C 214.105 197.778,214.157 197.670,217.039 194.662 C 218.482 193.156,220.843 190.096,222.287 187.862 C 224.222 184.867,226.052 182.713,229.256 179.662 C 234.878 174.308,235.435 171.670,230.027 176.010 C 225.822 179.384,224.000 179.945,224.000 177.863 C 224.000 176.930,226.204 174.177,230.268 170.034 C 232.041 168.227,232.459 166.951,231.410 166.548 C 231.033 166.404,229.359 167.675,226.784 170.061 C 222.713 173.834,221.885 174.385,221.419 173.630 C 220.986 172.930,221.929 171.658,226.081 167.336 C 229.399 163.881,229.995 163.075,229.590 162.588 C 228.569 161.358,227.497 161.955,222.265 166.667 C 218.002 170.506,216.944 169.761,220.236 165.237 C 223.045 161.376,223.501 159.070,221.318 159.762 C 220.216 160.112,216.067 165.224,214.187 168.548 C 212.249 171.976,211.458 172.202,210.089 169.721 C 208.368 166.600,206.809 166.902,207.601 170.204 C 208.076 172.184,208.043 172.837,207.284 176.506 C 206.819 178.758,206.320 182.400,206.176 184.600 C 205.878 189.147,205.037 192.037,202.705 196.530 C 200.301 201.159,201.682 200.846,184.257 200.714 L 169.217 200.600 168.109 199.491 L 167.000 198.382 166.889 178.362 L 166.778 158.342 168.149 156.971 L 169.520 155.600 186.773 155.600 C 204.876 155.600,205.773 155.521,207.200 153.801 C 207.790 153.090,207.848 150.775,207.992 122.669 C 207.998 121.517,208.289 120.849,209.169 119.969 L 210.338 118.800 233.100 118.800 L 255.861 118.800 256.680 119.700 M195.880 127.917 C 196.144 128.085,196.524 128.666,196.725 129.208 C 196.925 129.749,197.789 130.555,198.644 130.997 C 201.084 132.259,201.119 135.567,198.700 136.369 C 197.837 136.655,197.131 137.303,196.600 138.300 C 195.361 140.623,192.471 140.741,191.212 138.520 C 190.738 137.684,189.786 136.730,189.096 136.400 C 186.780 135.292,186.767 131.525,189.077 130.945 C 189.614 130.810,190.493 130.002,191.032 129.150 C 192.024 127.578,194.397 126.975,195.880 127.917 M104.124 212.764 C 104.425 213.066,104.608 214.702,104.621 217.221 C 104.646 222.140,104.562 222.057,109.435 221.915 L 113.400 221.800 113.505 217.600 C 113.627 212.712,114.066 212.000,116.955 212.000 C 120.512 212.000,120.400 211.559,120.400 225.574 C 120.400 239.432,120.574 238.675,117.292 239.064 C 114.018 239.451,113.600 238.742,113.600 232.800 L 113.600 228.000 112.500 227.975 C 111.895 227.961,110.083 227.913,108.474 227.867 C 104.675 227.760,104.892 227.458,104.736 233.083 C 104.575 238.855,104.484 239.006,101.156 238.986 C 97.885 238.966,98.013 239.525,98.006 225.287 L 98.000 212.774 98.900 212.391 C 100.057 211.898,103.504 212.144,104.124 212.764 M145.600 212.800 C 146.469 213.669,146.653 215.581,145.986 216.826 C 145.620 217.510,145.118 217.600,141.666 217.600 C 137.250 217.600,136.800 217.828,136.800 220.066 C 136.800 222.053,137.626 222.467,141.160 222.250 C 144.767 222.028,145.600 222.546,145.600 225.013 C 145.600 227.496,144.609 228.092,140.720 227.947 C 137.011 227.809,136.800 227.952,136.800 230.610 C 136.800 233.385,137.309 233.679,141.848 233.525 C 145.849 233.390,146.521 233.850,146.318 236.591 C 146.140 238.986,145.410 239.197,137.667 239.090 C 131.721 239.008,131.084 238.930,130.567 238.224 C 129.787 237.156,129.726 214.099,130.500 213.122 C 131.646 211.677,144.209 211.409,145.600 212.800 M168.415 212.655 C 168.789 213.029,172.870 223.908,176.409 233.963 L 177.733 237.725 176.797 238.483 C 174.422 240.406,170.803 238.994,169.953 235.812 C 169.275 233.278,169.120 233.200,164.775 233.200 C 160.400 233.200,160.609 233.076,159.399 236.398 C 158.333 239.324,152.577 240.534,152.082 237.935 C 151.952 237.257,160.215 213.790,160.888 212.924 C 161.613 211.991,167.539 211.779,168.415 212.655 M190.224 212.567 C 190.950 213.098,191.008 213.772,191.119 223.109 L 191.238 233.083 195.840 233.310 C 201.259 233.576,201.686 233.806,201.519 236.355 C 201.341 239.083,200.825 239.237,192.285 239.108 C 186.478 239.020,185.100 238.890,184.791 238.400 C 184.347 237.696,184.267 213.618,184.706 212.960 C 185.403 211.917,188.984 211.662,190.224 212.567 M164.220 220.900 C 164.134 221.175,163.701 222.570,163.256 224.000 C 162.319 227.013,162.395 227.163,164.915 227.258 C 167.435 227.354,167.443 227.332,166.208 223.625 C 165.198 220.593,164.579 219.743,164.220 220.900 M179.029 255.224 C 179.307 255.455,180.033 257.029,180.643 258.722 C 183.701 267.217,185.586 271.800,186.020 271.800 C 186.285 271.800,187.802 268.374,189.391 264.186 C 193.272 253.957,193.680 253.436,196.686 254.877 L 197.800 255.410 197.906 266.556 C 198.021 278.556,197.982 278.800,195.965 278.800 C 194.199 278.800,194.000 277.922,194.000 270.137 C 194.000 261.653,194.046 261.640,190.397 271.200 C 187.521 278.738,187.485 278.800,186.000 278.800 C 184.449 278.800,184.229 278.425,181.392 270.963 C 179.998 267.297,178.665 264.105,178.429 263.869 C 177.924 263.364,177.931 263.256,177.926 271.177 C 177.921 277.945,177.708 278.800,176.024 278.800 C 174.106 278.800,174.000 278.166,174.000 266.703 C 174.000 255.893,174.087 255.241,175.600 254.663 C 176.384 254.363,178.387 254.691,179.029 255.224 M225.122 255.343 C 225.860 256.311,233.653 277.227,233.525 277.895 C 233.422 278.428,232.999 278.600,231.795 278.600 L 230.200 278.600 228.943 275.406 C 227.497 271.730,226.841 271.377,222.118 271.740 C 218.958 271.983,219.061 271.901,217.810 275.173 C 216.594 278.356,216.084 278.908,214.524 278.729 C 212.736 278.524,212.918 277.484,216.239 268.938 C 217.935 264.572,219.796 259.743,220.374 258.206 C 221.671 254.758,223.729 253.517,225.122 255.343 M262.974 254.790 C 263.757 255.088,264.000 255.461,264.000 256.366 C 264.000 257.901,263.700 258.053,260.319 258.228 C 256.691 258.415,257.014 257.458,256.907 268.328 C 256.855 273.531,256.726 278.016,256.619 278.294 C 256.461 278.706,253.809 279.053,253.518 278.700 C 253.472 278.645,253.337 274.100,253.218 268.600 L 253.000 258.600 250.088 258.373 C 246.768 258.115,245.747 257.464,246.148 255.863 C 246.287 255.311,246.715 254.776,247.100 254.676 C 248.491 254.312,261.973 254.409,262.974 254.790 M292.174 254.790 C 292.957 255.088,293.200 255.461,293.200 256.366 C 293.200 258.023,292.741 258.194,288.145 258.249 C 283.184 258.308,283.200 258.298,283.200 261.200 C 283.200 264.110,283.281 264.163,287.882 264.223 C 291.831 264.276,292.928 264.714,292.719 266.155 C 292.528 267.479,290.918 267.988,286.900 267.994 L 283.200 268.000 283.200 271.600 L 283.200 275.200 287.174 275.200 C 292.112 275.200,293.200 275.555,293.200 277.166 C 293.200 278.845,292.977 278.903,286.316 278.951 C 278.504 279.007,279.200 280.203,279.200 266.724 C 279.200 253.377,278.638 254.400,285.974 254.400 C 288.820 254.400,291.610 254.576,292.174 254.790 M222.609 262.529 C 220.208 268.327,220.174 268.000,223.176 268.000 C 226.156 268.000,226.219 267.879,224.969 264.542 C 223.631 260.970,223.353 260.733,222.609 262.529  M -25 0 L -5 0 L -5 20 L -25 20 Z M 405 0 L 425 0 L 425 20 L 405 20 Z" stroke="none" fill="#fbfbfb" fill-rule="evenodd" transform="translate(30,0)"></path><path id="path1" d="M210.926 120.003 C 209.067 120.752,209.007 121.265,208.878 137.747 C 208.747 154.447,208.739 154.514,206.643 155.716 C 206.033 156.066,200.837 156.255,187.865 156.400 L 169.930 156.600 168.965 157.722 L 168.000 158.845 168.000 178.240 L 168.000 197.636 168.982 198.618 L 169.964 199.600 184.582 199.600 C 201.553 199.600,199.595 200.177,202.547 194.310 C 204.458 190.511,204.503 190.334,205.010 184.720 C 205.294 181.574,205.847 177.536,206.238 175.746 C 206.870 172.859,206.888 172.236,206.402 170.207 C 205.278 165.523,208.260 164.923,211.237 169.234 C 211.872 170.154,211.878 170.149,213.501 167.378 C 215.551 163.880,220.662 158.397,221.871 158.399 C 223.769 158.402,224.537 160.412,223.400 162.400 C 223.086 162.950,222.822 163.535,222.814 163.700 C 222.785 164.323,223.559 163.949,225.505 162.400 C 228.610 159.927,231.134 160.500,230.658 163.569 C 230.456 164.877,230.546 165.051,231.718 165.600 C 234.062 166.697,233.725 167.830,229.790 172.072 C 224.771 177.483,224.321 179.193,228.898 175.466 C 232.349 172.655,233.037 172.285,233.926 172.760 C 236.090 173.919,235.408 175.316,230.283 180.219 C 227.288 183.084,225.337 185.385,223.490 188.232 C 222.064 190.428,219.564 193.678,217.934 195.454 C 216.304 197.229,214.769 199.293,214.524 200.041 C 214.278 200.788,212.937 204.550,211.544 208.400 L 209.012 215.400 209.006 224.935 L 209.000 234.469 210.122 235.435 L 211.245 236.400 232.722 236.395 C 244.535 236.392,254.574 236.289,255.031 236.166 C 256.753 235.703,257.200 234.088,257.200 228.316 C 257.200 220.694,255.560 216.116,251.661 212.851 C 250.622 211.981,248.878 209.971,247.786 208.384 C 246.694 206.796,244.909 204.665,243.819 203.649 C 242.730 202.632,240.876 200.911,239.700 199.823 C 235.801 196.221,237.474 193.675,241.836 196.572 C 243.026 197.362,244.000 197.841,244.000 197.637 C 244.000 197.434,243.865 197.207,243.700 197.133 C 243.010 196.827,238.400 191.439,238.400 190.940 C 238.400 190.640,238.850 190.003,239.400 189.525 C 239.950 189.047,240.400 188.316,240.400 187.902 C 240.400 185.619,241.822 185.085,244.400 186.400 C 246.405 187.423,246.408 187.422,246.002 186.007 C 244.553 180.955,252.009 184.598,254.710 190.261 C 255.496 191.909,255.933 191.932,257.400 190.400 C 259.715 187.984,260.580 188.848,260.607 193.600 C 260.620 195.757,260.843 197.439,261.219 198.200 L 261.811 199.400 278.846 199.504 C 295.582 199.607,295.900 199.594,296.941 198.775 L 298.000 197.942 298.000 178.345 C 298.000 166.326,297.849 158.464,297.608 158.016 C 296.814 156.531,295.198 156.400,277.720 156.400 C 254.788 156.400,257.200 158.612,257.200 137.582 C 257.200 121.107,257.113 120.393,255.031 119.834 C 253.651 119.464,211.867 119.624,210.926 120.003 M192.014 129.759 C 191.714 130.667,191.169 131.282,190.367 131.614 C 188.008 132.591,187.874 134.648,190.105 135.630 C 190.881 135.971,191.629 136.721,191.972 137.500 C 192.791 139.359,194.859 139.388,195.620 137.551 C 195.942 136.775,196.637 136.093,197.454 135.751 C 199.881 134.737,200.093 132.411,197.811 131.838 C 197.232 131.693,196.371 130.905,195.795 129.992 C 194.426 127.824,192.688 127.717,192.014 129.759  M -25 0 L -5 0 L -5 20 L -25 20 Z M 405 0 L 425 0 L 425 20 L 405 20 Z" stroke="none" fill="#fb3636" fill-rule="evenodd" transform="translate(490,0)"></path><path id="path2" d="M99.500 213.232 C 98.707 213.694,98.395 237.302,99.175 237.785 C 102.530 239.858,104.157 238.118,103.901 232.729 C 103.628 226.959,103.440 227.145,109.405 227.286 L 114.200 227.400 114.299 231.800 C 114.442 238.193,115.195 239.294,118.551 238.019 L 119.600 237.620 119.594 225.910 C 119.587 213.109,119.607 213.222,117.358 212.953 C 114.824 212.651,114.625 212.996,114.400 218.084 L 114.200 222.600 109.433 222.713 C 103.600 222.852,103.808 223.034,103.769 217.746 C 103.745 214.565,103.598 213.444,103.169 213.172 C 102.410 212.692,100.370 212.725,99.500 213.232 M131.583 213.617 C 130.718 214.482,130.487 237.023,131.334 237.867 C 131.683 238.215,143.273 238.411,144.502 238.089 C 145.410 237.852,145.797 236.315,145.220 235.237 C 144.816 234.482,144.416 234.400,141.160 234.400 C 136.182 234.400,136.000 234.267,136.000 230.610 C 136.000 227.106,135.800 227.287,139.813 227.161 C 143.856 227.034,144.800 226.709,144.800 225.443 C 144.800 223.343,144.554 223.200,140.931 223.200 C 136.358 223.200,136.000 222.968,136.000 220.000 C 136.000 217.012,136.342 216.800,141.160 216.800 C 145.106 216.800,145.959 216.284,145.438 214.211 C 145.009 212.498,133.207 211.993,131.583 213.617 M162.442 213.148 C 161.357 213.452,152.488 237.045,153.193 237.752 C 154.786 239.349,158.017 238.067,158.764 235.540 C 159.647 232.557,159.948 232.400,164.800 232.400 C 169.505 232.400,170.019 232.632,170.573 235.000 C 171.186 237.618,173.250 238.946,175.565 238.211 C 176.809 237.816,176.663 237.128,173.459 228.302 C 171.842 223.846,170.015 218.796,169.399 217.080 C 167.922 212.967,166.321 212.062,162.442 213.148 M185.900 213.232 C 184.996 213.759,184.805 237.297,185.700 237.876 C 186.482 238.383,198.440 238.523,199.700 238.041 C 200.541 237.719,200.800 237.354,200.800 236.490 C 200.800 234.632,200.220 234.400,195.569 234.400 C 189.989 234.400,190.404 235.263,190.293 223.436 C 190.191 212.647,190.229 212.806,187.800 212.818 C 187.140 212.822,186.285 213.008,185.900 213.232 M166.705 222.232 C 168.512 227.690,168.486 227.772,164.894 227.918 C 161.218 228.066,161.121 227.859,162.615 223.054 C 164.605 216.656,164.843 216.609,166.705 222.232 M175.872 255.698 C 174.896 256.412,175.020 277.800,176.000 277.800 C 176.509 277.800,176.630 276.467,176.800 269.000 C 177.061 257.501,177.164 257.497,181.464 268.799 C 185.964 280.626,185.955 280.624,189.791 270.341 C 194.894 256.661,195.200 256.611,195.200 269.445 C 195.200 277.740,195.567 279.560,196.834 277.558 C 197.259 276.888,197.315 256.785,196.894 256.171 C 196.183 255.133,193.200 255.364,193.200 256.457 C 193.200 256.637,192.377 258.903,191.371 261.493 C 190.365 264.082,188.989 267.640,188.312 269.400 C 186.323 274.573,185.720 274.715,184.089 270.400 C 183.632 269.190,182.249 265.503,181.015 262.206 C 179.781 258.909,178.643 256.094,178.486 255.951 C 177.835 255.357,176.513 255.229,175.872 255.698 M247.700 255.612 C 245.585 256.462,246.838 257.280,250.521 257.454 C 254.111 257.624,253.770 256.598,254.000 267.933 C 254.193 277.467,254.227 277.800,255.000 277.800 C 255.773 277.800,255.807 277.467,256.000 267.933 C 256.230 256.582,255.878 257.623,259.538 257.475 C 262.763 257.346,263.903 256.717,262.624 255.773 C 261.726 255.111,249.282 254.977,247.700 255.612 M280.643 255.814 C 279.756 256.702,279.666 276.809,280.546 277.689 C 281.400 278.543,290.734 278.656,291.800 277.824 C 293.346 276.618,291.635 275.969,287.073 276.033 C 282.235 276.101,282.344 276.212,282.485 271.365 L 282.600 267.400 286.200 267.300 C 290.813 267.172,291.600 266.982,291.600 266.000 C 291.600 265.018,290.813 264.828,286.200 264.700 L 282.600 264.600 282.482 261.438 C 282.334 257.476,282.274 257.525,287.390 257.410 C 291.841 257.310,293.252 256.828,291.938 255.857 C 290.838 255.044,281.449 255.009,280.643 255.814 M222.078 256.300 C 221.886 256.685,221.353 257.990,220.893 259.200 C 220.433 260.410,219.212 263.560,218.181 266.200 C 214.762 274.949,213.973 277.333,214.368 277.728 C 215.124 278.484,215.928 277.603,217.018 274.826 C 218.483 271.090,218.363 271.154,223.645 271.286 L 228.176 271.400 229.416 274.374 C 230.699 277.453,231.639 278.521,232.397 277.763 C 232.848 277.312,225.063 256.464,224.236 255.906 C 223.470 255.390,222.439 255.578,222.078 256.300 M225.321 263.199 C 226.135 265.398,226.800 267.558,226.800 267.999 C 226.800 268.849,226.675 268.880,223.200 268.880 C 220.055 268.880,220.000 268.863,220.000 267.877 C 220.000 266.832,222.240 260.474,222.880 259.704 C 223.609 258.825,223.810 259.113,225.321 263.199  M -25 0 L -5 0 L -5 20 L -25 20 Z M 405 0 L 425 0 L 425 20 L 405 20 Z" stroke="none" fill="#2d2d2d" fill-rule="evenodd" transform="translate(950,0)"></path><path id="path3" d="M98.900 212.391 L 98.000 212.774 98.006 225.287 C 98.013 239.525,97.885 238.966,101.156 238.986 C 104.484 239.006,104.575 238.855,104.736 233.083 C 104.892 227.458,104.675 227.760,108.474 227.867 C 110.083 227.913,111.895 227.961,112.500 227.975 L 113.600 228.000 113.600 232.800 C 113.600 238.742,114.018 239.451,117.292 239.064 C 120.574 238.675,120.400 239.432,120.400 225.574 C 120.400 211.559,120.512 212.000,116.955 212.000 C 114.066 212.000,113.627 212.712,113.505 217.600 L 113.400 221.800 109.435 221.915 C 104.562 222.057,104.646 222.140,104.621 217.221 C 104.608 214.702,104.425 213.066,104.124 212.764 C 103.504 212.144,100.057 211.898,98.900 212.391 M131.600 212.278 C 130.074 212.823,130.000 213.436,130.000 225.600 C 130.000 240.413,129.182 238.973,137.667 239.090 C 145.410 239.197,146.140 238.986,146.318 236.591 C 146.521 233.850,145.849 233.390,141.848 233.525 C 137.309 233.679,136.800 233.385,136.800 230.610 C 136.800 227.952,137.011 227.809,140.720 227.947 C 144.609 228.092,145.600 227.496,145.600 225.013 C 145.600 222.546,144.767 222.028,141.160 222.250 C 137.626 222.467,136.800 222.053,136.800 220.066 C 136.800 217.828,137.250 217.600,141.666 217.600 C 145.990 217.600,146.400 217.360,146.400 214.826 C 146.400 212.294,145.559 211.996,138.500 212.032 C 135.035 212.049,131.930 212.160,131.600 212.278 M162.129 212.258 C 160.823 212.543,160.838 212.510,156.237 225.335 C 151.552 238.394,151.544 238.435,153.674 238.963 C 156.689 239.710,158.485 238.905,159.399 236.398 C 160.609 233.076,160.400 233.200,164.775 233.200 C 169.120 233.200,169.275 233.278,169.953 235.812 C 170.803 238.994,174.422 240.406,176.797 238.483 L 177.733 237.725 176.409 233.963 C 172.870 223.908,168.789 213.029,168.415 212.655 C 167.974 212.214,163.602 211.938,162.129 212.258 M185.600 212.292 C 185.270 212.417,184.868 212.718,184.706 212.960 C 184.267 213.618,184.347 237.696,184.791 238.400 C 185.100 238.890,186.478 239.020,192.285 239.108 C 200.825 239.237,201.341 239.083,201.519 236.355 C 201.686 233.806,201.259 233.576,195.840 233.310 L 191.238 233.083 191.119 223.109 C 191.008 213.772,190.950 213.098,190.224 212.567 C 189.457 212.008,186.767 211.847,185.600 212.292 M103.169 213.172 C 103.598 213.444,103.745 214.565,103.769 217.746 C 103.808 223.034,103.600 222.852,109.433 222.713 L 114.200 222.600 114.400 218.084 C 114.625 212.996,114.824 212.651,117.358 212.953 C 119.607 213.222,119.587 213.109,119.594 225.910 L 119.600 237.620 118.551 238.019 C 115.195 239.294,114.442 238.193,114.299 231.800 L 114.200 227.400 109.405 227.286 C 103.440 227.145,103.628 226.959,103.901 232.729 C 104.157 238.118,102.530 239.858,99.175 237.785 C 98.395 237.302,98.707 213.694,99.500 213.232 C 100.370 212.725,102.410 212.692,103.169 213.172 M144.304 213.053 C 145.385 213.343,145.843 214.799,145.220 215.963 C 144.816 216.718,144.416 216.800,141.160 216.800 C 136.342 216.800,136.000 217.012,136.000 220.000 C 136.000 222.968,136.358 223.200,140.931 223.200 C 144.554 223.200,144.800 223.343,144.800 225.443 C 144.800 226.709,143.856 227.034,139.813 227.161 C 135.800 227.287,136.000 227.106,136.000 230.610 C 136.000 234.267,136.182 234.400,141.160 234.400 C 144.416 234.400,144.816 234.482,145.220 235.237 C 145.797 236.315,145.410 237.852,144.502 238.089 C 143.273 238.411,131.683 238.215,131.334 237.867 C 130.487 237.023,130.718 214.482,131.583 213.617 C 132.414 212.786,141.762 212.372,144.304 213.053 M167.450 213.380 C 167.909 213.702,168.777 215.350,169.399 217.080 C 170.015 218.796,171.842 223.846,173.459 228.302 C 176.663 237.128,176.809 237.816,175.565 238.211 C 173.250 238.946,171.186 237.618,170.573 235.000 C 170.019 232.632,169.505 232.400,164.800 232.400 C 159.948 232.400,159.647 232.557,158.764 235.540 C 158.017 238.067,154.786 239.349,153.193 237.752 C 152.488 237.045,161.357 213.452,162.442 213.148 C 164.145 212.671,166.601 212.785,167.450 213.380 M189.600 213.191 C 190.103 213.509,190.215 215.172,190.293 223.436 C 190.404 235.263,189.989 234.400,195.569 234.400 C 200.220 234.400,200.800 234.632,200.800 236.490 C 200.800 237.354,200.541 237.719,199.700 238.041 C 198.440 238.523,186.482 238.383,185.700 237.876 C 184.805 237.297,184.996 213.759,185.900 213.232 C 186.784 212.717,188.814 212.695,189.600 213.191 M164.103 218.676 C 163.213 220.512,161.506 226.777,161.734 227.372 C 161.945 227.922,162.486 228.015,164.894 227.918 C 168.486 227.772,168.512 227.690,166.705 222.232 C 165.377 218.222,164.743 217.355,164.103 218.676 M166.208 223.625 C 167.443 227.332,167.435 227.354,164.915 227.258 C 162.395 227.163,162.319 227.013,163.256 224.000 C 163.701 222.570,164.134 221.175,164.220 220.900 C 164.579 219.743,165.198 220.593,166.208 223.625 M175.600 254.663 C 174.087 255.241,174.000 255.893,174.000 266.703 C 174.000 278.166,174.106 278.800,176.024 278.800 C 177.708 278.800,177.921 277.945,177.926 271.177 C 177.931 263.256,177.924 263.364,178.429 263.869 C 178.665 264.105,179.998 267.297,181.392 270.963 C 184.229 278.425,184.449 278.800,186.000 278.800 C 187.485 278.800,187.521 278.738,190.397 271.200 C 194.046 261.640,194.000 261.653,194.000 270.137 C 194.000 277.922,194.199 278.800,195.965 278.800 C 197.982 278.800,198.021 278.556,197.906 266.556 L 197.800 255.410 196.686 254.877 C 193.680 253.436,193.272 253.957,189.391 264.186 C 187.802 268.374,186.285 271.800,186.020 271.800 C 185.586 271.800,183.701 267.217,180.643 258.722 C 179.288 254.957,177.853 253.802,175.600 254.663 M222.346 254.952 C 221.732 255.258,221.075 256.341,220.374 258.206 C 219.796 259.743,217.935 264.572,216.239 268.938 C 212.918 277.484,212.736 278.524,214.524 278.729 C 216.084 278.908,216.594 278.356,217.810 275.173 C 219.061 271.901,218.958 271.983,222.118 271.740 C 226.841 271.377,227.497 271.730,228.943 275.406 L 230.200 278.600 231.795 278.600 C 234.146 278.600,234.096 278.327,229.566 266.495 C 224.679 253.734,224.706 253.776,222.346 254.952 M247.100 254.676 C 246.715 254.776,246.287 255.311,246.148 255.863 C 245.747 257.464,246.768 258.115,250.088 258.373 L 253.000 258.600 253.218 268.600 C 253.337 274.100,253.472 278.645,253.518 278.700 C 253.809 279.053,256.461 278.706,256.619 278.294 C 256.726 278.016,256.855 273.531,256.907 268.328 C 257.014 257.458,256.691 258.415,260.319 258.228 C 263.700 258.053,264.000 257.901,264.000 256.366 C 264.000 255.461,263.757 255.088,262.974 254.790 C 261.973 254.409,248.491 254.312,247.100 254.676 M280.000 255.200 C 278.954 256.246,278.744 276.824,279.766 278.221 C 280.284 278.929,280.833 278.991,286.316 278.951 C 292.977 278.903,293.200 278.845,293.200 277.166 C 293.200 275.555,292.112 275.200,287.174 275.200 L 283.200 275.200 283.200 271.600 L 283.200 268.000 286.900 267.994 C 290.918 267.988,292.528 267.479,292.719 266.155 C 292.928 264.714,291.831 264.276,287.882 264.223 C 283.281 264.163,283.200 264.110,283.200 261.200 C 283.200 258.298,283.184 258.308,288.145 258.249 C 292.741 258.194,293.200 258.023,293.200 256.366 C 293.200 254.693,292.124 254.400,285.974 254.400 C 281.333 254.400,280.718 254.482,280.000 255.200 M178.486 255.951 C 178.643 256.094,179.781 258.909,181.015 262.206 C 182.249 265.503,183.632 269.190,184.089 270.400 C 185.720 274.715,186.323 274.573,188.312 269.400 C 188.989 267.640,190.365 264.082,191.371 261.493 C 192.377 258.903,193.200 256.637,193.200 256.457 C 193.200 255.364,196.183 255.133,196.894 256.171 C 197.315 256.785,197.259 276.888,196.834 277.558 C 195.567 279.560,195.200 277.740,195.200 269.445 C 195.200 256.611,194.894 256.661,189.791 270.341 C 185.955 280.624,185.964 280.626,181.464 268.799 C 177.164 257.497,177.061 257.501,176.800 269.000 C 176.630 276.467,176.509 277.800,176.000 277.800 C 175.020 277.800,174.896 256.412,175.872 255.698 C 176.513 255.229,177.835 255.357,178.486 255.951 M262.624 255.773 C 263.903 256.717,262.763 257.346,259.538 257.475 C 255.878 257.623,256.230 256.582,256.000 267.933 C 255.807 277.467,255.773 277.800,255.000 277.800 C 254.227 277.800,254.193 277.467,254.000 267.933 C 253.770 256.598,254.111 257.624,250.521 257.454 C 246.838 257.280,245.585 256.462,247.700 255.612 C 249.282 254.977,261.726 255.111,262.624 255.773 M291.938 255.857 C 293.252 256.828,291.841 257.310,287.390 257.410 C 282.274 257.525,282.334 257.476,282.482 261.438 L 282.600 264.600 286.200 264.700 C 290.813 264.828,291.600 265.018,291.600 266.000 C 291.600 266.982,290.813 267.172,286.200 267.300 L 282.600 267.400 282.485 271.365 C 282.344 276.212,282.235 276.101,287.073 276.033 C 291.635 275.969,293.346 276.618,291.800 277.824 C 290.734 278.656,281.400 278.543,280.546 277.689 C 279.666 276.809,279.756 256.702,280.643 255.814 C 281.449 255.009,290.838 255.044,291.938 255.857 M224.236 255.906 C 225.063 256.464,232.848 277.312,232.397 277.763 C 231.639 278.521,230.699 277.453,229.416 274.374 L 228.176 271.400 223.645 271.286 C 218.363 271.154,218.483 271.090,217.018 274.826 C 215.928 277.603,215.124 278.484,214.368 277.728 C 213.973 277.333,214.762 274.949,218.181 266.200 C 219.212 263.560,220.433 260.410,220.893 259.200 C 222.307 255.479,222.833 254.961,224.236 255.906 M222.880 259.704 C 222.240 260.474,220.000 266.832,220.000 267.877 C 220.000 268.863,220.055 268.880,223.200 268.880 C 226.675 268.880,226.800 268.849,226.800 267.999 C 226.800 266.993,223.939 259.200,223.570 259.200 C 223.420 259.200,223.110 259.427,222.880 259.704 M224.969 264.542 C 226.219 267.879,226.156 268.000,223.176 268.000 C 220.525 268.000,220.411 267.836,221.400 265.449 C 221.730 264.652,222.274 263.338,222.609 262.529 C 223.353 260.733,223.631 260.970,224.969 264.542  M -25 0 L -5 0 L -5 20 L -25 20 Z M 405 0 L 425 0 L 425 20 L 405 20 Z" stroke="none" fill="#9d9d9d" fill-rule="evenodd" transform="translate(30,460)"></path><path id="path4" d="M209.169 119.969 C 208.289 120.849,207.998 121.517,207.992 122.669 C 207.848 150.775,207.790 153.090,207.200 153.801 C 205.773 155.521,204.876 155.600,186.773 155.600 L 169.520 155.600 168.149 156.971 L 166.778 158.342 166.889 178.362 L 167.000 198.382 168.109 199.491 L 169.217 200.600 184.257 200.714 C 201.682 200.846,200.301 201.159,202.705 196.530 C 205.037 192.037,205.878 189.147,206.176 184.600 C 206.320 182.400,206.819 178.758,207.284 176.506 C 208.043 172.837,208.076 172.184,207.601 170.204 C 206.809 166.902,208.368 166.600,210.089 169.721 C 211.458 172.202,212.249 171.976,214.187 168.548 C 216.067 165.224,220.216 160.112,221.318 159.762 C 223.501 159.070,223.045 161.376,220.236 165.237 C 216.944 169.761,218.002 170.506,222.265 166.667 C 227.497 161.955,228.569 161.358,229.590 162.588 C 229.995 163.075,229.399 163.881,226.081 167.336 C 221.929 171.658,220.986 172.930,221.419 173.630 C 221.885 174.385,222.713 173.834,226.784 170.061 C 229.359 167.675,231.033 166.404,231.410 166.548 C 232.459 166.951,232.041 168.227,230.268 170.034 C 226.204 174.177,224.000 176.930,224.000 177.863 C 224.000 179.945,225.822 179.384,230.027 176.010 C 235.435 171.670,234.878 174.308,229.256 179.662 C 226.052 182.713,224.222 184.867,222.287 187.862 C 220.843 190.096,218.482 193.156,217.039 194.662 C 214.157 197.670,214.105 197.778,210.419 208.312 L 208.000 215.224 208.000 224.923 C 208.000 238.947,205.357 237.601,232.887 237.598 C 260.313 237.595,258.200 238.378,258.200 228.218 L 258.200 221.800 256.709 218.200 C 255.423 215.093,254.865 214.271,252.639 212.200 C 251.221 210.880,249.101 208.434,247.930 206.764 C 246.758 205.094,244.404 202.517,242.699 201.035 C 237.848 196.823,237.477 195.042,242.118 198.247 C 247.387 201.884,247.997 199.531,243.025 194.755 C 241.141 192.945,239.600 191.310,239.600 191.120 C 239.600 190.122,240.981 190.455,242.650 191.855 C 246.344 194.955,247.344 195.616,247.739 195.221 C 248.278 194.682,246.742 192.606,244.173 190.400 C 241.863 188.416,241.371 187.669,241.976 187.064 C 242.543 186.497,243.686 187.116,246.980 189.772 C 250.950 192.973,251.841 192.169,248.764 188.163 C 247.904 187.043,247.200 185.828,247.200 185.463 C 247.200 183.372,250.778 186.318,253.745 190.854 C 255.731 193.889,256.407 194.133,257.535 192.220 C 258.846 189.999,259.396 190.372,259.425 193.500 C 259.453 196.527,260.112 199.254,261.039 200.182 C 261.578 200.720,263.900 200.800,279.069 200.800 L 296.480 200.800 297.840 199.440 L 299.200 198.080 299.199 178.340 C 299.197 159.422,299.164 158.546,298.411 157.311 C 297.340 155.555,297.970 155.611,278.326 155.500 L 260.852 155.400 259.626 154.225 L 258.400 153.050 258.400 137.699 C 258.400 121.803,258.377 121.563,256.680 119.700 L 255.861 118.800 233.100 118.800 L 210.338 118.800 209.169 119.969 M255.031 119.834 C 257.113 120.393,257.200 121.107,257.200 137.582 C 257.200 158.612,254.788 156.400,277.720 156.400 C 295.198 156.400,296.814 156.531,297.608 158.016 C 297.849 158.464,298.000 166.326,298.000 178.345 L 298.000 197.942 296.941 198.775 C 295.900 199.594,295.582 199.607,278.846 199.504 L 261.811 199.400 261.219 198.200 C 260.843 197.439,260.620 195.757,260.607 193.600 C 260.580 188.848,259.715 187.984,257.400 190.400 C 255.933 191.932,255.496 191.909,254.710 190.261 C 252.009 184.598,244.553 180.955,246.002 186.007 C 246.408 187.422,246.405 187.423,244.400 186.400 C 241.822 185.085,240.400 185.619,240.400 187.902 C 240.400 188.316,239.950 189.047,239.400 189.525 C 238.850 190.003,238.400 190.640,238.400 190.940 C 238.400 191.439,243.010 196.827,243.700 197.133 C 243.865 197.207,244.000 197.434,244.000 197.637 C 244.000 197.841,243.026 197.362,241.836 196.572 C 237.474 193.675,235.801 196.221,239.700 199.823 C 240.876 200.911,242.730 202.632,243.819 203.649 C 244.909 204.665,246.694 206.796,247.786 208.384 C 248.878 209.971,250.622 211.981,251.661 212.851 C 257.350 217.614,259.844 234.873,255.031 236.166 C 254.574 236.289,244.535 236.392,232.722 236.395 L 211.245 236.400 210.122 235.435 L 209.000 234.469 209.006 224.935 L 209.012 215.400 211.544 208.400 C 212.937 204.550,214.278 200.788,214.524 200.041 C 214.769 199.293,216.304 197.229,217.934 195.454 C 219.564 193.678,222.064 190.428,223.490 188.232 C 225.337 185.385,227.288 183.084,230.283 180.219 C 235.408 175.316,236.090 173.919,233.926 172.760 C 233.037 172.285,232.349 172.655,228.898 175.466 C 224.321 179.193,224.771 177.483,229.790 172.072 C 233.725 167.830,234.062 166.697,231.718 165.600 C 230.546 165.051,230.456 164.877,230.658 163.569 C 231.134 160.500,228.610 159.927,225.505 162.400 C 223.559 163.949,222.785 164.323,222.814 163.700 C 222.822 163.535,223.086 162.950,223.400 162.400 C 224.537 160.412,223.769 158.402,221.871 158.399 C 220.662 158.397,215.551 163.880,213.501 167.378 C 211.878 170.149,211.872 170.154,211.237 169.234 C 208.260 164.923,205.278 165.523,206.402 170.207 C 206.888 172.236,206.870 172.859,206.238 175.746 C 205.847 177.536,205.294 181.574,205.010 184.720 C 204.503 190.334,204.458 190.511,202.547 194.310 C 199.595 200.177,201.553 199.600,184.582 199.600 L 169.964 199.600 168.982 198.618 L 168.000 197.636 168.000 178.240 L 168.000 158.845 168.965 157.722 L 169.930 156.600 187.865 156.400 C 200.837 156.255,206.033 156.066,206.643 155.716 C 208.739 154.514,208.747 154.447,208.878 137.747 C 209.007 121.265,209.067 120.752,210.926 120.003 C 211.867 119.624,253.651 119.464,255.031 119.834 M191.032 129.150 C 190.493 130.002,189.614 130.810,189.077 130.945 C 186.767 131.525,186.780 135.292,189.096 136.400 C 189.786 136.730,190.738 137.684,191.212 138.520 C 192.471 140.741,195.361 140.623,196.600 138.300 C 197.131 137.303,197.837 136.655,198.700 136.369 C 201.119 135.567,201.084 132.259,198.644 130.997 C 197.789 130.555,196.925 129.749,196.725 129.208 C 195.866 126.886,192.483 126.851,191.032 129.150 M195.795 129.992 C 196.371 130.905,197.232 131.693,197.811 131.838 C 200.093 132.411,199.881 134.737,197.454 135.751 C 196.637 136.093,195.942 136.775,195.620 137.551 C 194.859 139.388,192.791 139.359,191.972 137.500 C 191.629 136.721,190.881 135.971,190.105 135.630 C 187.874 134.648,188.008 132.591,190.367 131.614 C 191.169 131.282,191.714 130.667,192.014 129.759 C 192.688 127.717,194.426 127.824,195.795 129.992  M -25 0 L -5 0 L -5 20 L -25 20 Z M 405 0 L 425 0 L 425 20 L 405 20 Z" stroke="none" fill="#fa9b9e" fill-rule="evenodd" transform="translate(490,460)"></path></g></svg>